<?xml version="1.0" encoding="utf-8"?>
<!-- Generator: Adobe Illustrator 19.2.1, SVG Export Plug-In . SVG Version: 6.00 Build 0)  -->
<svg version="1.1" id="Layer_1" xmlns="http://www.w3.org/2000/svg" xmlns:xlink="http://www.w3.org/1999/xlink" x="0px" y="0px"
	 viewBox="0 0 30 30" style="enable-background:new 0 0 30 30;" xml:space="preserve">
<style type="text/css">
	.st0{fill:#FFFFFF;}
</style>
<g>
	<polygon class="st0" points="4,11 2,11 2,13 2,15 4,15 4,13 	"/>
	<rect x="4" y="9" class="st0" width="2" height="2"/>
	<polygon class="st0" points="20,23 18,23 16,23 14,23 12,23 10,23 8,23 6,23 6,25 8,25 10,25 12,25 14,25 16,25 18,25 20,25 22,25 
		24,25 24,23 22,23 	"/>
	<rect x="24" y="9" class="st0" width="2" height="2"/>
	<polygon class="st0" points="12,13 14,13 16,13 18,13 18,15 20,15 20,13 20,11 18,11 16,11 14,11 12,11 10,11 10,13 10,15 12,15 	
		"/>
	<rect x="14" y="15" class="st0" width="2" height="2"/>
	<rect x="16" y="17" class="st0" width="2" height="2"/>
	<rect x="14" y="19" class="st0" width="2" height="2"/>
	<rect x="12" y="17" class="st0" width="2" height="2"/>
	<rect x="6" y="7" class="st0" width="2" height="2"/>
	<polygon class="st0" points="12,7 14,7 16,7 18,7 20,7 22,7 22,5 20,5 18,5 16,5 14,5 12,5 10,5 8,5 8,7 10,7 	"/>
	<rect x="22" y="7" class="st0" width="2" height="2"/>
	<polygon class="st0" points="22,15 20,15 20,17 22,17 24,17 24,19 24,21 24,23 26,23 26,21 26,19 26,17 26,15 24,15 	"/>
	<polygon class="st0" points="26,11 26,13 26,15 28,15 28,13 28,11 	"/>
	<polygon class="st0" points="6,19 6,17 8,17 10,17 10,15 8,15 6,15 4,15 4,17 4,19 4,21 4,23 6,23 6,21 	"/>
</g>
</svg>
