<?xml version="1.0" encoding="utf-8"?>
<!-- Generator: Adobe Illustrator 19.2.1, SVG Export Plug-In . SVG Version: 6.00 Build 0)  -->
<svg version="1.1" id="Layer_1" xmlns="http://www.w3.org/2000/svg" xmlns:xlink="http://www.w3.org/1999/xlink" x="0px" y="0px"
	 viewBox="0 0 30 30" style="enable-background:new 0 0 30 30;" xml:space="preserve">
<style type="text/css">
	.st0{fill:#FFFFFF;}
</style>
<g>
	<polygon class="st0" points="8.4,20.5 8.4,22.5 10.4,22.5 10.4,20.5 10.4,18.5 8.4,18.5 	"/>
	<polygon class="st0" points="10.4,16.5 10.4,18.5 12.4,18.5 12.4,16.5 12.4,14.5 10.4,14.5 	"/>
	<polygon class="st0" points="14.4,12.5 14.4,10.5 12.4,10.5 12.4,12.5 12.4,14.5 14.4,14.5 	"/>
	<polygon class="st0" points="16.4,8.5 16.4,6.5 14.4,6.5 14.4,8.5 14.4,10.5 16.4,10.5 	"/>
	<polygon class="st0" points="14.4,20.5 14.4,22.5 16.4,22.5 16.4,20.5 16.4,18.5 14.4,18.5 	"/>
	<polygon class="st0" points="16.4,16.5 16.4,18.5 18.4,18.5 18.4,16.5 18.4,14.5 16.4,14.5 	"/>
	<polygon class="st0" points="18.4,12.5 18.4,14.5 20.4,14.5 20.4,12.5 20.4,10.5 18.4,10.5 	"/>
	<polygon class="st0" points="20.4,6.5 20.4,8.5 20.4,10.5 22.4,10.5 22.4,8.5 22.4,6.5 	"/>
</g>
</svg>
