<?xml version="1.0" encoding="utf-8"?>
<!-- Generator: Adobe Illustrator 19.2.1, SVG Export Plug-In . SVG Version: 6.00 Build 0)  -->
<svg version="1.1" id="Layer_1" xmlns="http://www.w3.org/2000/svg" xmlns:xlink="http://www.w3.org/1999/xlink" x="0px" y="0px"
	 viewBox="0 0 30 30" style="enable-background:new 0 0 30 30;" xml:space="preserve">
<style type="text/css">
	.st0{fill:#FFFFFF;}
</style>
<g>
	<polygon class="st0" points="23.5,6.9 21.5,6.9 21.5,4.9 19.5,4.9 17.5,4.9 17.5,6.9 15.5,6.9 15.5,8.9 15.5,10.9 13.5,10.9 
		11.5,10.9 11.5,8.9 9.5,8.9 7.5,8.9 7.5,6.9 5.5,6.9 5.5,8.9 5.5,10.9 5.5,12.9 5.5,14.9 7.5,14.9 7.5,16.9 7.5,18.9 9.5,18.9 
		9.5,20.9 11.5,20.9 11.5,22.9 9.5,22.9 7.5,22.9 7.5,24.9 9.5,24.9 11.5,24.9 13.5,24.9 15.5,24.9 17.5,24.9 17.5,22.9 19.5,22.9 
		19.5,20.9 21.5,20.9 21.5,18.9 23.5,18.9 23.5,16.9 23.5,14.9 23.5,12.9 23.5,10.9 23.5,8.9 25.5,8.9 25.5,6.9 	"/>
	<rect x="5.5" y="20.9" class="st0" width="2" height="2"/>
</g>
</svg>
