<?xml version="1.0" encoding="utf-8"?>
<!-- Generator: Adobe Illustrator 19.2.1, SVG Export Plug-In . SVG Version: 6.00 Build 0)  -->
<svg version="1.1" id="Layer_1" xmlns="http://www.w3.org/2000/svg" xmlns:xlink="http://www.w3.org/1999/xlink" x="0px" y="0px"
	 viewBox="0 0 30 30" style="enable-background:new 0 0 30 30;" xml:space="preserve">
<style type="text/css">
	.st0{fill:#C3D2DC;}
</style>
<g>
	<polygon class="st0" points="13.8,17 13.8,19 15.8,19 15.8,17 17.8,17 17.8,15 15.8,15 15.8,13 15.8,11 15.8,9 15.8,7 13.8,7 
		13.8,9 13.8,11 13.8,13 13.8,15 11.8,15 11.8,17 	"/>
	<rect x="9.8" y="13" class="st0" width="2" height="2"/>
	<rect x="17.8" y="13" class="st0" width="2" height="2"/>
	<polygon class="st0" points="17.8,21 15.8,21 13.8,21 11.8,21 9.8,21 7.8,21 7.8,23 9.8,23 11.8,23 13.8,23 15.8,23 17.8,23 
		19.8,23 21.8,23 21.8,21 19.8,21 	"/>
	<polygon class="st0" points="7.8,17 5.8,17 5.8,19 5.8,21 7.8,21 7.8,19 	"/>
	<polygon class="st0" points="21.8,17 21.8,19 21.8,21 23.8,21 23.8,19 23.8,17 	"/>
</g>
</svg>
