<?xml version="1.0" encoding="utf-8"?>
<!-- Generator: Adobe Illustrator 19.2.1, SVG Export Plug-In . SVG Version: 6.00 Build 0)  -->
<svg version="1.1" id="Layer_1" xmlns="http://www.w3.org/2000/svg" xmlns:xlink="http://www.w3.org/1999/xlink" x="0px" y="0px"
	 viewBox="0 0 30 30" style="enable-background:new 0 0 30 30;" xml:space="preserve">
<style type="text/css">
	.st0{fill:#21D3A2;}
</style>
<polygon class="st0" points="21,3 21,7 19,7 19,11 17,11 17,15 17,15 15,15 15,19 13,19 13,23 13,23 13,23 11,23 11,19 9,19 9,17 
	5,17 5,21 7,21 7,25 9,25 9,27 15,27 15,25 15,25 17,25 17,21 19,21 19,17 19,17 21,17 21,13 23,13 23,9 25,9 25,3 "/>
<g id="Layer_2">
</g>
<g id="Layer_3">
</g>
</svg>
