<?xml version="1.0" encoding="utf-8"?>
<!-- Generator: Adobe Illustrator 19.2.1, SVG Export Plug-In . SVG Version: 6.00 Build 0)  -->
<svg version="1.1" id="Layer_1" xmlns="http://www.w3.org/2000/svg" xmlns:xlink="http://www.w3.org/1999/xlink" x="0px" y="0px"
	 viewBox="0 0 30 30" style="enable-background:new 0 0 30 30;" xml:space="preserve">
<style type="text/css">
	.st0{fill:#C3D2DC;}
</style>
<g>
	<polygon class="st0" points="13.4,6.2 15.4,6.2 17.4,6.2 17.4,4.2 15.4,4.2 13.4,4.2 11.4,4.2 9.4,4.2 9.4,6.2 11.4,6.2 	"/>
	<polygon class="st0" points="15.4,20.2 13.4,20.2 11.4,20.2 11.4,22.2 13.4,22.2 15.4,22.2 17.4,22.2 19.4,22.2 19.4,20.2 
		17.4,20.2 	"/>
	<polygon class="st0" points="15.4,16.2 13.4,16.2 11.4,16.2 11.4,18.2 13.4,18.2 15.4,18.2 17.4,18.2 19.4,18.2 19.4,16.2 
		17.4,16.2 	"/>
	<polygon class="st0" points="17.4,24.2 15.4,24.2 13.4,24.2 11.4,24.2 9.4,24.2 9.4,26.2 11.4,26.2 13.4,26.2 15.4,26.2 17.4,26.2 
		19.4,26.2 21.4,26.2 21.4,24.2 19.4,24.2 	"/>
	<rect x="17.4" y="6.2" class="st0" width="2" height="2"/>
	<rect x="19.4" y="8.2" class="st0" width="2" height="2"/>
	<polygon class="st0" points="21.4,10.2 21.4,12.2 21.4,14.2 21.4,16.2 21.4,18.2 21.4,20.2 21.4,22.2 21.4,24.2 23.4,24.2 
		23.4,22.2 23.4,20.2 23.4,18.2 23.4,16.2 23.4,14.2 23.4,12.2 23.4,10.2 	"/>
	<polygon class="st0" points="9.4,20.2 9.4,18.2 9.4,16.2 9.4,14.2 9.4,12.2 9.4,10.2 9.4,8.2 9.4,6.2 7.4,6.2 7.4,8.2 7.4,10.2 
		7.4,12.2 7.4,14.2 7.4,16.2 7.4,18.2 7.4,20.2 7.4,22.2 7.4,24.2 9.4,24.2 9.4,22.2 	"/>
</g>
</svg>
