<?xml version="1.0" encoding="utf-8"?>
<!-- Generator: Adobe Illustrator 19.2.1, SVG Export Plug-In . SVG Version: 6.00 Build 0)  -->
<svg version="1.1" id="Layer_1" xmlns="http://www.w3.org/2000/svg" xmlns:xlink="http://www.w3.org/1999/xlink" x="0px" y="0px"
	 viewBox="0 0 30 30" style="enable-background:new 0 0 30 30;" xml:space="preserve">
<style type="text/css">
	.st0{fill:#C3D2DC;}
</style>
<g>
	<polygon class="st0" points="13.5,24 13.5,26 13.5,28 15.5,28 17.5,28 17.5,26 17.5,24 15.5,24 	"/>
	<polygon class="st0" points="21.5,6 21.5,4 19.5,4 19.5,2 17.5,2 15.5,2 13.5,2 11.5,2 11.5,4 9.5,4 9.5,6 7.5,6 7.5,8 7.5,10 
		9.5,10 11.5,10 11.5,8 13.5,8 13.5,6 15.5,6 17.5,6 17.5,8 19.5,8 19.5,10 19.5,12 17.5,12 17.5,14 15.5,14 15.5,16 13.5,16 
		13.5,18 13.5,20 13.5,22 15.5,22 17.5,22 17.5,20 17.5,18 19.5,18 19.5,16 21.5,16 21.5,14 23.5,14 23.5,12 23.5,10 23.5,8 23.5,6 
			"/>
</g>
</svg>
