<?xml version="1.0" encoding="utf-8"?>
<!-- Generator: Adobe Illustrator 19.2.1, SVG Export Plug-In . SVG Version: 6.00 Build 0)  -->
<svg version="1.1" id="Layer_1" xmlns="http://www.w3.org/2000/svg" xmlns:xlink="http://www.w3.org/1999/xlink" x="0px" y="0px"
	 viewBox="0 0 60 30" style="enable-background:new 0 0 60 30;" xml:space="preserve">
<style type="text/css">
	.st0{fill:#19364D;}
</style>
<path class="st0" d="M52.5,11.3v-2h-2v-2h-2h-2h-1v-2h-2v2h-1v2h-2v2v2h-2v-2h-2v-2v-2v-2h-2v2h-2h-2h-2h-2h-2v-2h-2v2v2v2h-2v2h-2
	v-2v0v-2h-2V7.9V7.3v-2h-2v2h-2h-2h-2v2h-2v2h-2v2v2v2v2h2v-2h2v-2h2h2v-2h2v2h2h2v2h2v2v2h2v2h2v2h2h2h2h2h2v-2h2v-2h2v-2v-2h2v-2
	h2h2v-2h2v2h2h2v2h2v2h2v-2v-2v-2v-2H52.5z M34.5,13.3h-2v-2h2V13.3z M26.5,11.3v2h-2v-2H26.5z M32.5,21.3v2h-2h-2h-2v-2h-2v-2v-2h2
	v2h2v-2h2v2h2v-2h2v2v2H32.5z"/>
</svg>
