<?xml version="1.0" encoding="utf-8"?>
<!-- Generator: Adobe Illustrator 19.2.1, SVG Export Plug-In . SVG Version: 6.00 Build 0)  -->
<svg version="1.1" id="Layer_1" xmlns="http://www.w3.org/2000/svg" xmlns:xlink="http://www.w3.org/1999/xlink" x="0px" y="0px"
	 viewBox="0 0 30 30" style="enable-background:new 0 0 30 30;" xml:space="preserve">
<style type="text/css">
	.st0{fill:#19364D;}
</style>
<g>
	<polygon class="st0" points="22.8,22.8 21.4,24.2 22.8,25.6 24.2,24.2 25.6,22.8 24.2,21.4 	"/>
	<rect x="18.9" y="23.2" transform="matrix(0.7071 -0.7071 0.7071 0.7071 -11.2634 21.1917)" class="st0" width="2" height="2"/>
	<rect x="4.8" y="9.1" transform="matrix(0.7071 -0.7071 0.7071 0.7071 -5.4055 7.05)" class="st0" width="2" height="2"/>
	<polygon class="st0" points="22.8,19.9 24.2,21.4 25.6,19.9 24.2,18.5 22.8,17.1 21.4,15.7 19.9,17.1 21.4,18.5 	"/>
	<polygon class="st0" points="10.1,12.9 11.5,14.3 12.9,15.7 14.3,17.1 15.7,18.5 17.1,19.9 18.5,18.5 19.9,17.1 18.5,15.7 
		17.1,17.1 15.7,15.7 14.3,14.3 12.9,12.9 14.3,11.5 12.9,10.1 11.5,11.5 	"/>
	<rect x="16.1" y="23.2" transform="matrix(0.7071 -0.7071 0.7071 0.7071 -12.0918 19.1918)" class="st0" width="2" height="2"/>
	<polygon class="st0" points="12.9,21.4 11.5,19.9 10.1,18.5 8.6,17.1 7.2,15.7 5.8,14.3 4.4,15.7 5.8,17.1 7.2,18.5 8.6,19.9 
		10.1,21.4 11.5,22.8 12.9,24.2 14.3,25.6 15.7,24.2 14.3,22.8 	"/>
	<rect x="4.8" y="11.9" transform="matrix(0.7071 -0.7071 0.7071 0.7071 -7.4055 7.8784)" class="st0" width="2" height="2"/>
	<polygon class="st0" points="11.5,8.6 12.9,10.1 14.3,8.6 12.9,7.2 11.5,5.8 10.1,4.4 8.6,5.8 10.1,7.2 	"/>
	<polygon class="st0" points="8.6,5.8 7.2,4.4 5.8,5.8 4.4,7.2 5.8,8.6 7.2,7.2 	"/>
</g>
</svg>
