<?xml version="1.0" encoding="utf-8"?>
<!-- Generator: Adobe Illustrator 19.2.1, SVG Export Plug-In . SVG Version: 6.00 Build 0)  -->
<svg version="1.1" id="Layer_1" xmlns="http://www.w3.org/2000/svg" xmlns:xlink="http://www.w3.org/1999/xlink" x="0px" y="0px"
	 viewBox="0 0 30 30" style="enable-background:new 0 0 30 30;" xml:space="preserve">
<style type="text/css">
	.st0{fill:#FDFEFF;}
</style>
<polygon class="st0" points="18.4,5 16.4,5 14.4,5 14.4,7 12.4,7 12.4,9 12.4,11 12.4,13 10.4,13 10.4,15 10.4,17 12.4,17 12.4,19 
	12.4,21 12.4,23 12.4,25 14.4,25 16.4,25 16.4,23 16.4,21 16.4,19 16.4,17 18.4,17 20.4,17 20.4,15 20.4,13 18.4,13 16.4,13 
	16.4,11 16.4,9 18.4,9 20.4,9 20.4,7 20.4,5 "/>
</svg>
